#!OML:ASF H:\Terrain\Patient Classification 1\Takeo\Monday\TakeoMonday.ASF
:FULLY-SPECIFIED
:DEGREES
110
root 10.2432 16.9884 -15.1436 -2.46234 -2.69431 -3.03996
lowerback 9.77795 -0.224751 5.66714
upperback 1.03646 0.366159 1.18607
thorax -4.37907 0.0898046 -2.00075
lowerneck -17.7033 1.25157 -4.24334
upperneck -0.848577 2.45209 1.14591
head 2.7565 1.25849 1.32657
rclavicle 2.50966e-015 -1.07344e-014
rhumerus -26.1844 11.1098 -90.3016
rradius 53.2998
rwrist -22.1428
rhand -32.0741 22.397
rfingers 7.12502
rthumb -5.32032 -7.5162
lclavicle 2.50966e-015 -1.07344e-014
lhumerus -45.9791 -1.70643 89.2313
lradius 39.5764
lwrist 25.7226
lhand -22.9166 24.2426
lfingers 7.12502
lthumb 3.52367 54.1933
rfemur -2.28492 3.87868 29.6685
rtibia 30.2829
rfoot -23.1052 -7.36884
rtoes 3.61137
lfemur -28.4812 -1.67485 -19.1893
ltibia 73.323
lfoot -5.3563 10.3773
ltoes -11.3184
111
root 10.2453 16.982 -14.926 -2.4991 -2.90763 -3.0497
lowerback 10.0595 -0.098741 5.90647
upperback 1.15933 0.561044 0.897338
thorax -4.3871 0.181595 -2.46448
lowerneck -18.1445 1.12448 -4.01713
upperneck -0.962868 2.24247 1.44912
head 2.80464 1.17048 1.37769
rclavicle -4.41053e-015 1.41137e-014
rhumerus -24.8704 11.27 -90.2085
rradius 54.8181
rwrist -22.218
rhand -31.8646 22.5882
rfingers 7.12502
rthumb -5.11797 -7.33002
lclavicle -4.41053e-015 1.41137e-014
lhumerus -46.2353 -1.65108 88.739
lradius 38.266
lwrist 25.9931
lhand -23.9927 24.0589
lfingers 7.12502
lthumb 2.48437 54.0241
rfemur -1.20337 3.69443 29.64
rtibia 29.8855
rfoot -23.4347 -6.82144
rtoes 5.52684
lfemur -29.4431 -1.87178 -19.0195
ltibia 71.5426
lfoot -6.62617 10.1957
ltoes -10.8379
112
root 10.2472 16.9794 -14.7005 -2.54317 -3.17479 -2.68334
lowerback 10.2901 0.00945747 5.59535
upperback 1.17515 0.674894 0.673509
thorax -4.48995 0.238918 -2.54154
lowerneck -18.0958 1.13261 -3.8357
upperneck -1.09806 2.21315 1.46236
head 2.75025 1.15831 1.34408
rclavicle -2.09966e-015 8.34896e-015
rhumerus -23.9164 11.7906 -89.9661
rradius 56.4317
rwrist -22.2976
rhand -31.2856 22.7092
rfingers 7.12502
rthumb -4.55891 -7.22172
lclavicle -2.09966e-015 8.34896e-015
lhumerus -46.7327 -1.27421 88.391
lradius 36.9904
lwrist 26.0898
lhand -25.2926 23.6809
lfingers 7.12502
lthumb 1.22894 53.6571
rfemur -0.0279807 3.41242 29.1515
rtibia 29.304
rfoot -23.4367 -6.39528
rtoes 4.67488
lfemur -30.3481 -2.09427 -19.2906
ltibia 69.4901
lfoot -7.60308 10.3259
ltoes -10.5867
113
root 10.2519 16.9644 -14.4702 -2.68491 -3.48096 -2.91345
lowerback 10.5242 0.0457203 5.80953
upperback 1.2717 0.762063 0.723152
thorax -4.50958 0.279691 -2.62414
lowerneck -18.0756 1.13556 -3.57481
upperneck -1.15225 2.17669 1.14935
head 2.73215 1.12709 1.18859
rclavicle -6.62201e-015 -4.57205e-015
rhumerus -22.9661 12.5006 -89.5754
rradius 58.0004
rwrist -22.4173
rhand -31.1005 22.8081
rfingers 7.12502
rthumb -4.3802 -7.12662
lclavicle -6.62201e-015 -4.57205e-015
lhumerus -47.1011 -0.360079 87.9473
lradius 35.5498
lwrist 25.8324
lhand -25.8673 22.8438
lfingers 7.12502
lthumb 0.67392 52.8225
rfemur 1.36083 2.88375 29.2244
rtibia 28.5043
rfoot -23.2111 -5.9484
rtoes 1.42088
lfemur -31.0806 -2.22022 -18.8621
ltibia 67.2792
lfoot -8.48263 10.3679
ltoes -10.8044
114
root 10.2594 16.9534 -14.2401 -2.73249 -3.69267 -3.51371
lowerback 10.6274 0.0898746 6.43044
upperback 1.40896 0.90439 0.947536
thorax -4.40445 0.34673 -2.75813
lowerneck -18.2882 0.99723 -3.66448
upperneck -1.10665 2.0317 0.921882
head 2.79206 1.04462 1.12171
rclavicle -8.95773e-015 -1.78906e-014
rhumerus -21.9152 13.4362 -88.8458
rradius 59.5125
rwrist -22.7395
rhand -31.2894 22.8923
rfingers 7.12502
rthumb -4.56261 -7.03858
lclavicle -8.95773e-015 -1.78906e-014
lhumerus -47.3875 0.463321 87.7384
lradius 34.1119
lwrist 25.5288
lhand -26.0992 21.7441
lfingers 7.12502
lthumb 0.449913 51.7234
rfemur 2.77791 2.38512 29.6926
rtibia 27.4982
rfoot -23.0624 -5.5086
rtoes -0.825299
lfemur -31.7777 -2.19255 -18.027
ltibia 64.8773
lfoot -8.7156 10.3545
ltoes -11.5016
